# xmcd
#
# Track frame offsets:
#	150
#	8331
#	21927
#	33092
#	49733
#	61255
#	80585
#	97699
#	110755
#	125090
#	136318
#
# Disc length: 1984
#
# Revision: 1
# Processed by: cddbd v1.5.1PL0 Copyright (c) Steve Scherf et al.
# Submitted via: CDex 1.51
# Normalized: r0:DSETVAR1,TDELIM( - )
#
DISCID=8207be0b
DTITLE=Various Artist - Will Play For Food
DYEAR=2003
DGENRE=Country
TTITLE0=The Nylons/Tom Jackson - The Huron Carole
TTITLE1=Michelle Wright - White Christmas
TTITLE2=Brad Johner - It Came Upon A Midnight Clear
TTITLE3=Amanda Stott - O Come, O Come Emmanuel
TTITLE4=Tom Jackson - Christmas In Killarney
TTITLE5=Brad Johner - Merry Christmas To Me
TTITLE6=Michelle Wright - Your Love
TTITLE7=Beverley Mahood - Santa Claus Is Coming To Town
TTITLE8=Amanda Stott - Joy Of Heaven
TTITLE9=Tom Jackson - Go Tell It On The Mountain
TTITLE10=Tom Jackson - Christmas Tine This Year/Auld Lang Syne
EXTD=YEAR: 2003
EXTT0=
EXTT1=
EXTT2=
EXTT3=
EXTT4=
EXTT5=
EXTT6=
EXTT7=
EXTT8=
EXTT9=
EXTT10=
PLAYORDER=
